<?xml version="1.0" encoding="UTF-8"?>
<svg xmlns="http://www.w3.org/2000/svg" xmlns:xlink="http://www.w3.org/1999/xlink" viewBox="0 0 90 90" width="90px" height="90px">
<g id="surface201274377">
<path style=" stroke:none;fill-rule:nonzero;fill:rgb(100%,100%,100%);fill-opacity:1;" d="M 30 11.25 C 19.660156 11.25 11.25 19.660156 11.25 30 L 11.25 60 C 11.25 70.339844 19.660156 78.75 30 78.75 L 60 78.75 C 70.339844 78.75 78.75 70.339844 78.75 60 L 78.75 30 C 78.75 19.660156 70.339844 11.25 60 11.25 Z M 30 18.75 L 60 18.75 C 66.203125 18.75 71.25 23.796875 71.25 30 L 71.25 60 C 71.25 66.203125 66.203125 71.25 60 71.25 L 30 71.25 C 23.796875 71.25 18.75 66.203125 18.75 60 L 18.75 30 C 18.75 23.796875 23.796875 18.75 30 18.75 Z M 63.75 22.5 C 61.679688 22.5 60 24.179688 60 26.25 C 60 28.320312 61.679688 30 63.75 30 C 65.820312 30 67.5 28.320312 67.5 26.25 C 67.5 24.179688 65.820312 22.5 63.75 22.5 Z M 45 26.25 C 34.660156 26.25 26.25 34.660156 26.25 45 C 26.25 55.339844 34.660156 63.75 45 63.75 C 55.339844 63.75 63.75 55.339844 63.75 45 C 63.75 34.660156 55.339844 26.25 45 26.25 Z M 45 33.75 C 51.203125 33.75 56.25 38.796875 56.25 45 C 56.25 51.203125 51.203125 56.25 45 56.25 C 38.796875 56.25 33.75 51.203125 33.75 45 C 33.75 38.796875 38.796875 33.75 45 33.75 Z M 45 33.75 "/>
</g>
</svg>
