<?xml version="1.0" encoding="UTF-8"?>
<svg xmlns="http://www.w3.org/2000/svg" xmlns:xlink="http://www.w3.org/1999/xlink" viewBox="0 0 90 90" width="90px" height="90px">
<defs>
    <linearGradient id="grad1" x1="0%" y1="100%" x2="100%" y2="0%">
      <stop offset="0%" style="stop-color:rgba(170, 54, 124, 0.95);stop-opacity:1" />
      <stop offset="100%" style="stop-color:rgba(74, 47, 189, 0.95);stop-opacity:1" />
    </linearGradient>
  </defs>
<g id="surface122942498">
<path style=" stroke:none;fill-rule:nonzero;fill:url(#grad1);fill-opacity:1;" d="M 71.25 11.25 L 18.75 11.25 C 14.605469 11.25 11.25 14.605469 11.25 18.75 L 11.25 71.25 C 11.25 75.394531 14.605469 78.75 18.75 78.75 L 71.25 78.75 C 75.394531 78.75 78.75 75.394531 78.75 71.25 L 78.75 18.75 C 78.75 14.605469 75.394531 11.25 71.25 11.25 Z M 33.75 63.75 L 24.289062 63.75 L 24.289062 37.5 L 33.75 37.5 Z M 28.851562 32.6875 C 25.960938 32.6875 24.03125 30.761719 24.03125 28.1875 C 24.03125 25.617188 25.957031 23.6875 29.171875 23.6875 C 32.0625 23.6875 33.992188 25.617188 33.992188 28.1875 C 33.992188 30.761719 32.066406 32.6875 28.851562 32.6875 Z M 67.5 63.75 L 58.34375 63.75 L 58.34375 49.402344 C 58.34375 45.433594 55.902344 44.519531 54.984375 44.519531 C 54.070312 44.519531 51.019531 45.132812 51.019531 49.402344 C 51.019531 50.015625 51.019531 63.75 51.019531 63.75 L 41.558594 63.75 L 41.558594 37.5 L 51.019531 37.5 L 51.019531 41.164062 C 52.238281 39.027344 54.679688 37.5 59.257812 37.5 C 63.835938 37.5 67.5 41.164062 67.5 49.402344 Z M 67.5 63.75 "/>
</g>
</svg>
