<?xml version="1.0" encoding="UTF-8"?>
<svg xmlns="http://www.w3.org/2000/svg" xmlns:xlink="http://www.w3.org/1999/xlink" viewBox="0 0 90 90" width="90px" height="90px">
<g id="surface123345487">
<defs>
    <linearGradient id="grad1" x1="100%" y1="100%" x2="0%" y2="0%">
      <stop offset="0%" style="stop-color:rgba(170, 54, 124, 0.95);stop-opacity:1" />
      <stop offset="100%" style="stop-color:rgba(74, 47, 189, 0.95);stop-opacity:1" />
    </linearGradient>
  </defs>
<path style=" stroke:none;fill-rule:evenodd;fill:url(#grad1);fill-opacity:1;" d="M 68.917969 21.105469 C 62.566406 14.753906 54.128906 11.25 45.144531 11.25 C 26.621094 11.25 11.535156 26.324219 11.535156 44.847656 C 11.523438 50.769531 13.074219 56.546875 16.019531 61.644531 L 11.25 79.058594 L 29.070312 74.378906 C 33.96875 77.058594 39.507812 78.464844 45.132812 78.476562 L 45.144531 78.476562 C 63.664062 78.476562 78.738281 63.402344 78.75 44.867188 C 78.75 35.890625 75.257812 27.453125 68.917969 21.105469 Z M 45.144531 72.796875 L 45.132812 72.796875 C 40.121094 72.796875 35.199219 71.445312 30.914062 68.90625 L 29.894531 68.300781 L 19.3125 71.070312 L 22.136719 60.765625 L 21.476562 59.710938 C 18.675781 55.261719 17.203125 50.121094 17.203125 44.847656 C 17.203125 29.453125 29.738281 16.929688 45.152344 16.929688 C 52.613281 16.929688 59.621094 19.839844 64.894531 25.113281 C 70.167969 30.398438 73.070312 37.410156 73.070312 44.867188 C 73.070312 60.269531 60.535156 72.796875 45.144531 72.796875 Z M 60.457031 51.878906 C 59.621094 51.460938 55.492188 49.425781 54.722656 49.152344 C 53.953125 48.867188 53.394531 48.734375 52.832031 49.570312 C 52.273438 50.417969 50.667969 52.304688 50.175781 52.867188 C 49.691406 53.414062 49.195312 53.492188 48.363281 53.074219 C 47.515625 52.65625 44.8125 51.769531 41.605469 48.898438 C 39.113281 46.679688 37.417969 43.921875 36.9375 43.089844 C 36.441406 42.242188 36.882812 41.792969 37.296875 41.375 C 37.683594 41 38.144531 40.398438 38.5625 39.902344 C 38.980469 39.417969 39.121094 39.066406 39.40625 38.507812 C 39.683594 37.945312 39.539062 37.453125 39.332031 37.035156 C 39.121094 36.617188 37.441406 32.476562 36.738281 30.792969 C 36.058594 29.15625 35.363281 29.386719 34.847656 29.355469 C 34.367188 29.332031 33.804688 29.332031 33.246094 29.332031 C 32.683594 29.332031 31.773438 29.542969 31.003906 30.386719 C 30.234375 31.222656 28.070312 33.253906 28.070312 37.386719 C 28.070312 41.515625 31.082031 45.515625 31.496094 46.078125 C 31.914062 46.625 37.417969 55.109375 45.847656 58.742188 C 47.84375 59.613281 49.40625 60.128906 50.625 60.511719 C 52.636719 61.148438 54.46875 61.0625 55.921875 60.851562 C 57.535156 60.613281 60.886719 58.820312 61.589844 56.855469 C 62.28125 54.898438 62.28125 53.21875 62.074219 52.867188 C 61.863281 52.515625 61.304688 52.304688 60.457031 51.878906 Z M 60.457031 51.878906 "/>
</g>
</svg>
